<?xml version="1.0" standalone="no"?>
<!DOCTYPE svg PUBLIC "-//W3C//DTD SVG 20010904//EN"
 "http://www.w3.org/TR/2001/REC-SVG-20010904/DTD/svg10.dtd">
<svg version="1.0" xmlns="http://www.w3.org/2000/svg"
 width="512.000000pt" height="512.000000pt" viewBox="0 0 512.000000 512.000000"
 preserveAspectRatio="xMidYMid meet">
<metadata>
Created by potrace 1.11, written by Peter Selinger 2001-2013
</metadata>
<g transform="translate(0.000000,512.000000) scale(0.100000,-0.100000)"
fill="#000000" stroke="none">
<path d="M1890 4644 c0 -11 -81 -30 -107 -25 -7 1 -13 -3 -13 -9 0 -5 -9 -10
-20 -10 -10 0 -29 -4 -42 -9 -25 -10 -60 -23 -68 -26 -11 -3 -105 -50 -110
-55 -3 -3 -21 -14 -40 -24 -74 -40 -172 -127 -379 -333 -117 -117 -217 -213
-222 -213 -5 0 -8 -3 -7 -7 3 -10 -139 -153 -152 -153 -6 0 -9 -3 -8 -7 3 -10
-199 -213 -212 -213 -6 0 -9 -3 -8 -7 4 -10 -45 -59 -55 -55 -4 1 -7 -2 -7 -8
0 -5 -39 -49 -87 -98 -91 -91 -133 -138 -133 -148 0 -2 -11 -17 -24 -31 -14
-15 -23 -30 -20 -35 3 -4 1 -8 -3 -8 -5 0 -17 -17 -28 -37 -10 -21 -27 -50
-37 -64 -9 -14 -15 -29 -11 -33 3 -3 0 -6 -7 -6 -7 0 -11 -3 -7 -6 3 -4 -3
-24 -14 -45 -11 -22 -17 -39 -13 -39 4 0 1 -7 -6 -15 -7 -8 -10 -22 -6 -30 3
-9 2 -13 -4 -10 -8 5 -15 -31 -11 -57 0 -5 -3 -8 -8 -8 -12 0 -11 7 -16 -220
-2 -102 1 -207 6 -235 6 -27 11 -60 13 -72 1 -13 6 -26 9 -30 4 -3 7 -13 7
-22 0 -9 7 -29 15 -45 8 -15 15 -37 15 -47 0 -11 5 -19 10 -19 6 0 10 -8 10
-18 0 -10 6 -24 13 -30 6 -7 13 -16 13 -20 5 -26 18 -52 25 -52 5 0 9 -6 9
-13 0 -7 9 -23 20 -35 11 -12 20 -25 20 -29 0 -5 13 -23 29 -41 17 -17 28 -32
25 -32 -2 0 27 -31 64 -70 38 -38 67 -72 64 -75 -3 -3 0 -5 6 -5 12 0 392
-379 392 -392 0 -4 4 -8 8 -8 12 0 140 -128 134 -134 -3 -3 -1 -6 5 -6 13 0
113 -100 113 -113 0 -6 2 -8 5 -5 7 7 75 -61 75 -75 0 -6 2 -8 5 -5 7 7 101
-85 97 -94 -2 -5 0 -8 5 -8 4 0 43 -34 86 -75 43 -41 85 -75 93 -75 8 0 14 -7
14 -15 0 -8 11 -17 25 -21 14 -3 25 -10 25 -15 0 -5 4 -9 10 -9 5 0 26 -11 46
-25 20 -14 40 -22 45 -19 5 3 9 1 9 -5 0 -6 11 -13 25 -17 14 -3 25 -9 25 -13
0 -4 6 -8 13 -9 22 -2 42 -8 65 -20 12 -7 22 -10 22 -7 0 3 14 -1 30 -10 17
-9 30 -13 30 -9 0 4 6 2 13 -3 6 -5 30 -11 52 -12 22 -2 41 -7 43 -11 2 -5 10
-6 18 -3 7 3 27 0 44 -6 17 -5 28 -6 25 -1 -3 4 3 7 12 5 10 -2 18 -4 18 -5 0
-1 8 -3 18 -5 9 -2 17 2 17 8 0 8 3 9 8 2 9 -14 55 -17 46 -4 -3 6 3 5 14 -2
17 -10 23 -10 36 1 9 7 19 10 23 6 3 -3 0 -6 -7 -6 -7 0 -11 -2 -8 -5 2 -3 18
-1 34 4 16 6 47 12 69 16 84 12 99 15 104 22 3 5 15 9 26 11 52 8 74 16 165
59 51 24 169 97 214 133 65 50 1116 1112 1116 1127 -1 17 -1 17 -11 0 -6 -9
-14 -15 -19 -12 -5 3 -11 1 -15 -4 -3 -5 -14 -8 -25 -6 -11 2 -20 -1 -20 -7 0
-5 -7 -8 -15 -5 -8 4 -17 2 -20 -2 -3 -5 -23 -8 -45 -7 -22 1 -40 -2 -40 -6 0
-5 -9 -4 -20 2 -14 8 -20 8 -20 0 0 -6 -4 -9 -8 -6 -5 3 -30 7 -58 10 -69 8
-177 39 -194 56 -3 3 -23 14 -44 25 -46 23 -81 53 -178 150 l-69 70 -25 -28
c-13 -15 -24 -26 -24 -23 0 2 -52 -48 -115 -112 -63 -64 -115 -120 -115 -126
0 -5 -3 -7 -6 -3 -6 6 -27 -13 -61 -57 -13 -16 -23 -26 -23 -23 0 3 -22 -15
-48 -41 -27 -26 -47 -50 -46 -53 2 -3 -8 -12 -21 -19 -14 -7 -27 -22 -31 -32
-3 -11 -8 -17 -11 -14 -7 6 -53 -44 -53 -57 0 -6 -2 -8 -5 -6 -2 3 -56 -46
-120 -109 -63 -62 -119 -111 -124 -108 -5 3 -12 -1 -15 -10 -4 -9 -9 -14 -13
-11 -3 4 -12 2 -19 -4 -8 -6 -20 -9 -28 -6 -8 3 -16 1 -18 -5 -5 -15 -131 -18
-173 -6 -16 5 -42 16 -56 23 -14 8 -28 12 -31 10 -3 -3 -13 4 -23 15 -10 11
-24 20 -32 20 -7 0 -13 7 -13 16 0 8 -5 12 -10 9 -6 -3 -10 2 -10 11 0 10 -2
15 -5 12 -6 -5 -115 101 -115 112 0 4 -12 12 -26 18 -14 7 -22 17 -19 22 3 6
3 10 -2 10 -11 0 -113 98 -113 109 0 6 -8 12 -17 16 -10 3 -29 21 -43 39 -14
19 -27 32 -29 30 -3 -2 -13 8 -23 23 -10 16 -18 25 -18 22 0 -3 -34 28 -75 70
-41 41 -75 78 -75 82 0 4 -9 11 -21 14 -11 4 -18 9 -15 12 3 3 -10 18 -29 33
-19 15 -32 30 -28 34 3 3 -1 6 -11 6 -9 0 -15 4 -12 8 3 5 -6 15 -19 22 -13 7
-23 16 -21 19 2 3 -11 17 -29 31 -19 14 -39 34 -46 45 -6 11 -33 38 -59 60
-26 22 -45 43 -43 48 2 4 -4 7 -13 7 -10 0 -15 3 -12 6 7 7 -39 54 -53 54 -6
0 -7 5 -4 10 3 6 2 10 -3 10 -12 0 -62 96 -62 119 0 9 -5 22 -12 29 -9 9 -9
12 1 12 7 0 9 5 4 13 -12 18 -14 85 -2 92 5 4 7 10 4 15 -7 12 24 101 43 123
8 9 12 17 8 17 -8 0 1025 1033 1056 1056 23 18 78 45 78 39 0 -3 10 1 23 9 22
14 141 20 162 8 6 -4 18 -8 27 -9 64 -10 121 -56 321 -255 114 -114 213 -208
220 -208 6 0 60 50 119 110 59 61 113 110 120 110 6 0 9 3 5 6 -8 8 18 34 34
34 7 0 10 2 7 5 -3 3 53 63 125 134 l129 130 -219 218 c-121 120 -228 225
-239 233 -10 8 -38 30 -62 48 -23 19 -42 30 -42 25 0 -4 -5 0 -11 10 -5 9 -17
17 -24 17 -8 0 -15 5 -15 11 0 5 -4 8 -9 5 -5 -3 -19 3 -32 13 -13 10 -27 18
-31 17 -4 0 -16 7 -28 16 -11 10 -20 16 -20 13 0 -2 -16 3 -35 11 -19 8 -35
11 -35 8 0 -4 -6 -2 -12 4 -12 9 -69 26 -93 27 -5 0 -15 4 -21 7 -6 4 -27 8
-47 10 -21 1 -37 6 -37 10 0 4 -5 8 -11 8 -5 0 -7 -6 -3 -12 6 -10 4 -10 -7 0
-9 8 -52 12 -141 12 -96 0 -128 -3 -128 -12 0 -10 -3 -9 -9 1 -6 10 -10 10
-16 1 -6 -9 -10 -9 -16 1 -5 9 -9 9 -9 3z"/>
<path d="M4438 4539 c-16 -4 -28 -5 -28 -1 0 3 -23 -18 -51 -46 -28 -29 -56
-52 -62 -52 -6 0 -7 -3 -4 -7 4 -3 -2 -13 -13 -20 -11 -8 -18 -18 -16 -22 3
-4 1 -13 -4 -20 -16 -27 11 -82 70 -140 106 -105 138 -104 248 8 43 44 62 71
59 83 -3 10 -1 20 3 23 19 12 -14 63 -80 129 -39 38 -70 65 -70 61 0 -4 -6 -3
-12 2 -8 6 -25 7 -40 2z"/>
<path d="M3260 4473 c-8 -3 -22 -7 -30 -10 -8 -4 -17 -6 -20 -7 -7 0 -79 -76
-73 -76 2 0 -3 -7 -11 -16 -21 -21 -20 -69 2 -95 40 -48 62 -69 72 -69 5 0 10
-7 10 -15 0 -9 10 -15 23 -16 12 0 29 -2 39 -4 18 -3 119 87 137 123 13 24 11
50 -4 70 -30 40 -106 112 -114 107 -5 -3 -11 -1 -13 3 -1 5 -10 7 -18 5z"/>
<path d="M3700 4253 c-8 -3 -22 -7 -30 -9 -8 -3 -16 -5 -18 -4 -13 4 -243
-231 -263 -270 -26 -50 -23 -149 6 -188 39 -53 247 -252 264 -252 11 0 22 -4
25 -9 9 -14 83 -11 127 4 47 17 243 206 278 268 25 45 28 124 5 172 -8 18 -40
58 -70 89 -30 31 -54 61 -54 67 0 6 -4 8 -8 5 -4 -2 -34 22 -66 55 -32 33 -61
57 -64 54 -3 -2 -11 0 -17 5 -14 11 -91 20 -115 13z"/>
<path d="M4488 3960 c-10 -6 -18 -8 -18 -5 0 7 -13 -4 -75 -61 -24 -23 -41
-44 -38 -48 4 -3 1 -6 -6 -6 -13 0 -69 -60 -88 -94 -13 -24 -15 -94 -2 -101 4
-3 6 -11 3 -19 -3 -7 35 -54 86 -105 49 -51 90 -89 90 -84 0 4 4 2 9 -6 5 -7
30 -19 57 -26 43 -11 52 -10 86 8 31 17 121 101 196 182 29 32 34 135 8 164
-9 10 -13 21 -9 24 3 4 -1 7 -10 7 -8 0 -19 9 -22 21 -4 11 -9 18 -12 15 -3
-3 -17 9 -32 27 -14 18 -30 34 -35 36 -4 2 -16 12 -25 23 -36 43 -127 70 -163
48z"/>
<path d="M4952 3440 c-18 -11 -35 -27 -38 -35 -4 -8 -9 -13 -14 -10 -8 5 -30
-32 -34 -60 -2 -11 1 -28 6 -38 15 -29 79 -88 89 -82 5 4 9 1 9 -5 0 -21 55 4
94 44 56 57 56 96 -2 153 -23 23 -42 38 -42 35 0 -4 -5 0 -10 8 -9 13 -10 13
-10 0 0 -11 -2 -12 -8 -3 -6 9 -16 7 -40 -7z"/>
<path d="M3493 3383 c-13 -3 -23 -9 -23 -15 0 -6 -3 -8 -7 -5 -3 4 -12 2 -20
-4 -7 -6 -13 -8 -13 -4 0 5 -9 0 -20 -10 -11 -10 -20 -15 -20 -10 0 4 -80 -73
-177 -171 -98 -97 -177 -181 -175 -186 1 -4 -3 -8 -9 -8 -5 0 -19 -21 -30 -46
-18 -39 -23 -58 -33 -109 -1 -5 -6 -16 -10 -24 -6 -9 -5 -12 1 -8 7 4 11 -6
12 -26 1 -45 6 -75 14 -83 4 -4 7 -16 7 -26 0 -10 5 -18 10 -18 6 0 10 -7 10
-15 0 -8 5 -15 10 -15 6 0 10 -5 10 -11 0 -17 344 -355 382 -375 18 -10 36
-18 40 -19 3 0 10 -3 14 -7 4 -5 18 -8 30 -8 13 0 26 -5 29 -10 4 -6 11 -7 17
-4 6 4 35 7 64 8 30 0 54 4 54 9 0 4 5 5 10 2 6 -3 10 -2 10 2 0 5 10 10 22
10 13 1 24 7 26 13 2 5 10 10 17 10 15 0 265 244 265 259 0 6 -5 11 -11 11
-10 0 -87 68 -127 113 -10 10 -45 47 -79 82 -35 34 -63 70 -63 79 0 9 -4 16
-10 16 -5 0 -10 9 -10 19 0 11 -4 22 -10 26 -5 3 -7 12 -3 20 3 9 0 22 -6 29
-7 8 -8 17 -3 20 5 3 8 21 7 41 -1 19 2 35 6 35 4 0 10 16 13 35 4 19 14 42
24 51 9 10 29 33 45 52 15 19 27 32 27 28 0 -3 16 11 35 33 19 21 35 41 35 44
0 11 -108 117 -119 117 -6 0 -11 4 -11 8 0 7 -48 28 -90 40 -22 6 -141 9 -167
5z"/>
<path d="M4078 3228 c-36 -23 -218 -202 -218 -216 0 -5 -7 -15 -15 -22 -8 -7
-12 -16 -9 -21 3 -5 1 -9 -5 -9 -17 0 -16 -101 1 -112 10 -6 10 -8 -1 -8 -11
0 -11 -4 2 -18 10 -10 17 -22 17 -26 0 -11 190 -199 224 -221 16 -11 36 -21
45 -23 38 -9 101 -3 132 12 36 17 101 75 137 121 12 15 22 24 22 20 0 -4 13 8
29 28 15 20 30 34 33 32 2 -3 15 16 28 42 39 77 30 156 -24 218 -14 17 -26 34
-26 39 0 5 -2 7 -5 4 -3 -3 -29 19 -58 49 -86 90 -91 94 -130 114 -49 25 -134
24 -179 -3z"/>
<path d="M4850 3141 c0 -6 -8 -8 -17 -7 -11 2 -43 -22 -85 -65 -37 -38 -65
-69 -63 -69 2 0 0 -12 -5 -26 -7 -18 -7 -30 0 -39 5 -6 7 -14 4 -17 -8 -9 129
-145 146 -145 8 0 20 -2 25 -3 31 -8 60 5 99 44 25 24 47 41 50 38 4 -3 6 1 6
8 0 7 7 18 16 24 25 19 34 79 17 115 -19 38 -131 144 -144 136 -5 -4 -9 -1 -9
4 0 6 -9 11 -20 11 -11 0 -20 -4 -20 -9z"/>
<path d="M4339 2393 c-34 -17 -204 -184 -228 -224 -11 -17 -17 -38 -14 -45 3
-8 0 -14 -5 -14 -14 0 -6 -66 13 -106 22 -47 245 -265 245 -239 0 4 6 2 14 -4
22 -19 146 -1 146 20 0 5 5 9 10 9 19 0 193 184 208 220 18 44 25 90 12 90 -5
0 -7 6 -4 14 3 8 -2 29 -11 46 -23 45 -193 212 -236 232 -41 20 -112 20 -150
1z"/>
</g>
</svg>
